<svg width="155" height="22" viewBox="0 0 155 22" fill="none" xmlns="http://www.w3.org/2000/svg">
<g id="Logo" clip-path="url(#clip0_1_81)">
<path id="Vector" d="M6.8247 17.6C5.97064 17.6 5.19034 17.284 4.47992 16.6521C3.7695 16.0201 3.28812 15.2302 3.0319 14.2783L2.50006 12.2876H11.9219L12.0422 12.7774C12.1703 13.2039 12.4654 13.5397 12.9235 13.7846C13.3815 14.0294 14.1114 14.1519 15.1091 14.1519C16.1068 14.1519 16.8288 14.0215 17.1278 13.7569C17.4267 13.4962 17.5276 13.1763 17.4306 12.7971C17.318 12.4022 17.1122 12.0941 16.8133 11.865C16.5144 11.6359 16.0369 11.5135 15.3769 11.4977L5.20587 11.0316C4.30523 11 3.49387 10.684 2.77957 10.0837C2.06138 9.48725 1.58389 8.7289 1.3432 7.80862L0.155278 3.31777C-0.104822 2.35009 -0.0388263 1.55619 0.349382 0.932136C0.733709 0.312029 1.35484 0 2.2089 0H20.6449C21.499 0 22.2793 0.312029 22.9897 0.932136C23.7001 1.55619 24.1815 2.35009 24.4377 3.31777L24.9696 5.30844H15.5477L15.4274 4.81867C15.3148 4.3921 15.0275 4.05637 14.5695 3.81149C14.1114 3.56661 13.3815 3.44417 12.3838 3.44417C11.3202 3.44417 10.6408 3.57056 10.3419 3.82334C10.0429 4.07612 9.94978 4.4079 10.0624 4.81867C10.1594 5.1781 10.3147 5.47433 10.5321 5.70341C10.7495 5.9325 11.1066 6.06284 11.6074 6.09838L22.2638 6.56445C23.1644 6.59605 23.9757 6.91203 24.6901 7.51239C25.4082 8.11275 25.8857 8.86715 26.1264 9.78743L27.3105 14.2862C27.5667 15.2381 27.5046 16.028 27.1164 16.66C26.7281 17.2919 26.1109 17.6079 25.2568 17.6079H6.8247V17.6Z" fill="white"/>
<path id="Vector_2" d="M32.0466 17.6C31.3362 17.6 30.6801 17.3393 30.0784 16.814C29.4728 16.2887 29.0691 15.6251 28.8594 14.8233L26.8291 7.17666C26.6195 6.37487 26.6816 5.71131 27.0116 5.186C27.3415 4.66068 27.8617 4.4 28.5683 4.4H45.432C46.1425 4.4 46.7985 4.66068 47.4003 5.186C48.0059 5.71131 48.4096 6.37487 48.6192 7.17666L50.6496 14.8233C50.8592 15.6251 50.7971 16.2887 50.4671 16.814C50.1371 17.3393 49.6169 17.6 48.9104 17.6H32.0466ZM39.6089 14.1835C40.2844 14.1835 40.7891 14.0689 41.119 13.8399C41.449 13.6108 41.55 13.2434 41.4218 12.7339L40.5018 9.29372C40.3737 8.7684 40.0786 8.39318 39.6206 8.16409C39.1625 7.93501 38.584 7.82047 37.893 7.82047C37.202 7.82047 36.7129 7.93106 36.3829 8.15225C36.0529 8.37343 35.952 8.7447 36.0801 9.27002L36.9963 12.7102C37.1244 13.2197 37.4194 13.591 37.8775 13.828C38.3356 14.065 38.914 14.1835 39.605 14.1835H39.6089Z" fill="white"/>
<path id="Vector_3" d="M52.9711 17.6L49.4927 4.4H58.2158L58.9417 7.17666H59.1824C58.9728 6.37487 59.0349 5.71131 59.3648 5.186C59.6948 4.66068 60.215 4.4 60.9216 4.4H68.7983C69.5087 4.4 70.1648 4.66068 70.7665 5.186C71.3721 5.71131 71.7759 6.37487 71.9855 7.17666L74.7379 17.6H66.0149L63.8875 9.5386C63.7594 9.01329 63.4682 8.63806 63.0179 8.40898C62.5676 8.17989 62.0047 8.06535 61.3253 8.06535C60.6459 8.06535 60.1723 8.17594 59.8501 8.39713C59.5279 8.61831 59.4308 8.98959 59.559 9.5149L61.6863 17.604H52.9633L52.9711 17.6Z" fill="white"/>
<path id="Vector_4" d="M72.6843 3.34147L71.7914 0H80.5144L81.4073 3.34147H72.6843ZM76.4305 17.6L72.9521 4.4H81.6752L85.1535 17.6H76.4305Z" fill="white"/>
<path id="Vector_5" d="M101.241 22L99.3581 14.8233H99.1174C99.327 15.6251 99.2649 16.2887 98.9349 16.814C98.605 17.3393 98.0848 17.6 97.3782 17.6H89.2103C88.4999 17.6 87.8438 17.3393 87.2421 16.814C86.6365 16.2887 86.2327 15.6251 86.0231 14.8233L83.9928 7.17666C83.7832 6.37487 83.8453 5.71131 84.1752 5.186C84.5052 4.66068 85.0254 4.4 85.732 4.4H93.8999C94.6103 4.4 95.2664 4.66068 95.8681 5.186C96.4737 5.71131 96.8774 6.37487 97.0871 7.17666H97.3278L96.6018 4.4H105.274L109.913 22H101.241ZM96.7726 13.9623C97.4986 13.9623 98.0382 13.8438 98.3914 13.6068C98.7447 13.3698 98.8573 12.9946 98.7292 12.489L97.9566 9.4912C97.813 8.96589 97.5024 8.59462 97.0249 8.37343C96.5513 8.15225 95.9574 8.04165 95.2508 8.04165C94.5443 8.04165 93.9853 8.1562 93.632 8.38528C93.2787 8.61436 93.1662 8.99354 93.2943 9.5149L94.0668 12.5127C94.2104 13.0223 94.521 13.3896 94.9985 13.6187C95.4721 13.8478 96.0661 13.9623 96.7765 13.9623H96.7726Z" fill="#A694FF"/>
<path id="Vector_6" d="M112.91 17.6C112.2 17.6 111.544 17.3393 110.942 16.814C110.337 16.2887 109.933 15.6251 109.723 14.8233L106.971 4.4H115.694L117.821 12.4614C117.949 12.9709 118.241 13.3422 118.691 13.5792C119.141 13.8162 119.704 13.9346 120.383 13.9346C121.063 13.9346 121.536 13.8201 121.859 13.591C122.181 13.3619 122.278 12.9946 122.15 12.4851L120.022 4.39605H128.745L132.224 17.596H123.501L122.775 14.8194H122.534C122.744 15.6212 122.682 16.2847 122.352 16.8101C122.022 17.3354 121.502 17.596 120.795 17.596H112.918L112.91 17.6Z" fill="#A694FF"/>
<path id="Vector_7" d="M136.273 17.6C135.562 17.6 134.906 17.3393 134.305 16.814C133.699 16.2887 133.295 15.6251 133.086 14.8233L131.055 7.17666C130.846 6.37487 130.908 5.71131 131.238 5.186C131.568 4.66068 132.088 4.4 132.794 4.4H149.658C150.369 4.4 151.025 4.66068 151.626 5.186C152.232 5.71131 152.636 6.37487 152.845 7.17666L154.15 12.0941H141.056L141.393 13.3975C141.506 13.8083 141.781 14.0966 142.216 14.2704C142.651 14.4442 143.214 14.5271 143.909 14.5271C144.604 14.5271 145.101 14.4402 145.454 14.2704C145.807 14.0966 145.928 13.8083 145.815 13.3975L145.695 12.9551H154.367L154.876 14.8233C155.085 15.6251 155.023 16.2887 154.693 16.814C154.363 17.3393 153.843 17.6 153.137 17.6H136.273ZM140.357 9.43986H144.778L144.584 8.70126C144.472 8.27469 144.188 7.96266 143.738 7.76517C143.288 7.56769 142.725 7.46894 142.045 7.46894C141.366 7.46894 140.838 7.56769 140.5 7.76517C140.163 7.96266 140.05 8.27469 140.163 8.70126L140.357 9.43986Z" fill="#A694FF"/>
</g>
<defs>
<clipPath id="clip0_1_81">
<rect width="155" height="22" fill="white"/>
</clipPath>
</defs>
</svg>
